<svg xmlns="http://www.w3.org/2000/svg" viewBox="0 0 244.19 467.63"><title>kindje</title><g id="Laag_2" data-name="Laag 2"><g id="Laag_2-2" data-name="Laag 2"><path d="M74.42,179s-42.58.91-44.4,44.95,44.4,46.22,44.4,46.22,40.21,1.27,45.67-40.58-35.48-49.68-35.48-49.68S77.48,178.7,74.42,179Z"/><path d="M111.61,298.22l12.19,101s3,11-13.6,8.28v48.33s-15.31,26.64-28.93,0V407.64H68.66v47.52s-13.51,27.7-28.94,0V407.64s-13.85,3.49-12.27-11.37,8.78-79,8.78-79-10.37,12.83-13.85,40.85c0,0-13.26,24-22.38-.83,0,0,6.34-64.33,48.32-80.78,0,0,3.4-1.7,11.06-2S94,273.35,94,273.35s37.16,14.18,51.34-29.21c0,0,3.12-15.88,19-8.79,0,0,30.38-39.55,33.28-127.14,0,0-1.9-1.75-6.52-.43,0,0,.75-8,4.81-10.85,0,0-58.93-15.17-30.34-76.78,0,0,21.37-36.63,60.78-11.1,0,0,52.73,59.39-23,87.7l6.11,13.88s-6-3.13-8.88-2.78c0,0,1.86,83.39-33.38,129.54C167.14,237.39,170.77,292.75,111.61,298.22Z"/></g></g></svg>