<svg xmlns="http://www.w3.org/2000/svg" viewBox="0 0 612.29 612.29"><defs><style>.cls-1,.cls-3{fill:#1d1d1b;}.cls-2{fill:none;stroke-width:19px;}.cls-2,.cls-4{stroke:#fff;}.cls-2,.cls-3,.cls-4{stroke-miterlimit:10;}.cls-3{stroke:#1d1d1b;}.cls-4,.cls-5,.cls-6,.cls-7{fill:#fff;}.cls-5{font-size:65px;font-family:Thruster-Regular, Thruster;}.cls-6{font-size:45px;font-family:ShreeDev0714, Shree Devanagari 714;}</style></defs><title>Middel 11</title><g id="Laag_2" data-name="Laag 2"><g id="Laag_1-2" data-name="Laag 1"><rect class="cls-1" width="612.29" height="612.29"/><circle class="cls-2" cx="301.54" cy="298.71" r="194.34"/><rect class="cls-3" x="86.01" y="302" width="68.17" height="82.52" transform="translate(-54.39 24.19) rotate(-9.39)"/><path class="cls-4" d="M99.53,287.57l-7.79,6.68v29.82L95.63,327v6.9l3.89.67v5.56H106l2.67,9.52s7.79,2,8.68-3.52l-2.67-8,5.56-2.45v-5.56l2.45-1.95s-3.78-17-3.12-33.89l-6.68-7.57Z"/><text class="cls-5" transform="translate(163.22 377.97) rotate(-15.05)">SIMPLE BEATS</text><text class="cls-6" transform="matrix(0.97, -0.26, 0.26, 0.97, 189.9, 302.77)">MUSIC BY</text><path class="cls-7" d="M117.31,386s9.74-5.5,19.55-3.22l-12.89,4Z"/></g></g></svg>