<svg xmlns="http://www.w3.org/2000/svg" viewBox="0 0 615.29 615.29"><defs><style>.cls-1{fill:#1d1d1b;stroke:#fff;stroke-width:3px;}.cls-1,.cls-3,.cls-4,.cls-5,.cls-6{stroke-miterlimit:10;}.cls-2{opacity:0.7;}.cls-3,.cls-4,.cls-5{fill:#428eaf;}.cls-3{stroke:#e30613;stroke-width:3.3px;}.cls-4{stroke:#428eaf;}.cls-4,.cls-5,.cls-6{stroke-width:3.33px;}.cls-5{stroke:#afaa6a;}.cls-6{fill:#f2b632;stroke:#f2b632;}.cls-7{font-size:99.39px;fill:#fff;font-family:Thruster-Regular, Thruster;}</style></defs><title>Middel 21</title><g id="Laag_2" data-name="Laag 2"><g id="Laag_1-2" data-name="Laag 1"><rect class="cls-1" x="1.5" y="1.5" width="612.29" height="612.29"/><g class="cls-2"><line class="cls-3" x1="302.97" y1="223.69" x2="302.97" y2="355.45"/><line class="cls-4" x1="326.39" y1="194.41" x2="326.39" y2="393.1"/><line class="cls-5" x1="347.3" y1="165.13" x2="347.3" y2="437.02"/><line class="cls-6" x1="376.58" y1="194.41" x2="376.58" y2="393.1"/><line class="cls-3" x1="405.86" y1="223.69" x2="405.86" y2="355.45"/><line class="cls-4" x1="431.4" y1="177.68" x2="431.4" y2="416.1"/><line class="cls-6" x1="278.31" y1="195.46" x2="278.31" y2="394.14"/><line class="cls-5" x1="254.89" y1="166.18" x2="254.89" y2="438.06"/><line class="cls-4" x1="230.62" y1="195.46" x2="230.62" y2="394.14"/><line class="cls-3" x1="206.35" y1="224.74" x2="206.35" y2="356.5"/><line class="cls-6" x1="183.32" y1="178.73" x2="183.32" y2="417.15"/><line class="cls-5" x1="457.88" y1="215.33" x2="457.88" y2="378.46"/><line class="cls-6" x1="483.29" y1="240.42" x2="483.29" y2="355.45"/><line class="cls-3" x1="509.61" y1="263.43" x2="509.61" y2="332.45"/><line class="cls-5" x1="159.07" y1="215.33" x2="159.07" y2="378.46"/><line class="cls-4" x1="131.96" y1="240.42" x2="131.96" y2="355.45"/><line class="cls-3" x1="107.16" y1="263.43" x2="107.16" y2="332.45"/></g><text class="cls-7" transform="translate(71.48 337.52) rotate(0.16)">SIMPLE BEATS</text></g></g></svg>