<svg xmlns="http://www.w3.org/2000/svg" viewBox="0 0 211.46 120.83"><defs><style>.cls-1{opacity:0.4;}.cls-2{fill:#428eaf;stroke:#428eaf;stroke-miterlimit:10;stroke-width:3.33px;}.cls-3{font-size:44px;fill:#1d1d1b;font-family:Thruster-Regular, Thruster;}</style></defs><title>Middel 1</title><g id="Laag_2" data-name="Laag 2"><g id="Laag_1-2" data-name="Laag 1"><g class="cls-1"><line class="cls-2" x1="102.17" y1="25.93" x2="102.17" y2="84.26"/><line class="cls-2" x1="112.54" y1="12.96" x2="112.54" y2="100.92"/><line class="cls-2" x1="121.8" x2="121.8" y2="120.37"/><line class="cls-2" x1="134.76" y1="12.96" x2="134.76" y2="100.92"/><line class="cls-2" x1="147.72" y1="25.93" x2="147.72" y2="84.26"/><line class="cls-2" x1="159.02" y1="5.56" x2="159.02" y2="111.11"/><line class="cls-2" x1="91.25" y1="13.43" x2="91.25" y2="101.39"/><line class="cls-2" x1="80.88" y1="0.46" x2="80.88" y2="120.83"/><line class="cls-2" x1="70.14" y1="13.43" x2="70.14" y2="101.39"/><line class="cls-2" x1="59.39" y1="26.39" x2="59.39" y2="84.72"/><line class="cls-2" x1="49.2" y1="6.02" x2="49.2" y2="111.57"/><line class="cls-2" x1="170.75" y1="22.22" x2="170.75" y2="94.44"/><line class="cls-2" x1="182" y1="33.33" x2="182" y2="84.26"/><line class="cls-2" x1="193.65" y1="43.52" x2="193.65" y2="74.07"/><line class="cls-2" x1="38.46" y1="22.22" x2="38.46" y2="94.44"/><line class="cls-2" x1="26.46" y1="33.33" x2="26.46" y2="84.26"/><line class="cls-2" x1="15.48" y1="43.52" x2="15.48" y2="74.07"/></g><text class="cls-3" transform="translate(0.02 75.06) rotate(0.16)">SIMPLE BEATS</text></g></g></svg>