<svg xmlns="http://www.w3.org/2000/svg" viewBox="0 0 562.68 562.68"><defs><style>.cls-1{fill:#1d1d1b;stroke:#fff;stroke-width:3px;}.cls-1,.cls-3,.cls-4,.cls-5,.cls-6{stroke-miterlimit:10;}.cls-2{opacity:0.7;}.cls-3,.cls-4,.cls-5{fill:#428eaf;}.cls-3{stroke:#e30613;stroke-width:3.3px;}.cls-4{stroke:#428eaf;}.cls-4,.cls-5,.cls-6{stroke-width:3.33px;}.cls-5{stroke:#afaa6a;}.cls-6{fill:#f2b632;stroke:#f2b632;}.cls-7{font-size:99.39px;fill:#fff;font-family:Thruster-Regular, Thruster;}</style></defs><title>Middel 20</title><g id="Laag_2" data-name="Laag 2"><g id="Laag_1-2" data-name="Laag 1"><circle class="cls-1" cx="281.34" cy="281.34" r="279.84"/><g class="cls-2"><line class="cls-3" x1="276.66" y1="199.13" x2="276.66" y2="330.89"/><line class="cls-4" x1="300.08" y1="169.85" x2="300.08" y2="368.54"/><line class="cls-5" x1="321" y1="140.57" x2="321" y2="412.46"/><line class="cls-6" x1="350.28" y1="169.85" x2="350.28" y2="368.54"/><line class="cls-3" x1="379.56" y1="199.13" x2="379.56" y2="330.89"/><line class="cls-4" x1="405.09" y1="153.12" x2="405.09" y2="391.55"/><line class="cls-6" x1="252" y1="170.9" x2="252" y2="369.59"/><line class="cls-5" x1="228.58" y1="141.62" x2="228.58" y2="413.51"/><line class="cls-4" x1="204.31" y1="170.9" x2="204.31" y2="369.59"/><line class="cls-3" x1="180.04" y1="200.18" x2="180.04" y2="331.94"/><line class="cls-6" x1="157.02" y1="154.17" x2="157.02" y2="392.59"/><line class="cls-5" x1="431.58" y1="190.77" x2="431.58" y2="353.9"/><line class="cls-6" x1="456.98" y1="215.87" x2="456.98" y2="330.89"/><line class="cls-3" x1="483.3" y1="238.87" x2="483.3" y2="307.89"/><line class="cls-5" x1="132.77" y1="190.77" x2="132.77" y2="353.9"/><line class="cls-4" x1="105.66" y1="215.87" x2="105.66" y2="330.89"/><line class="cls-3" x1="80.86" y1="238.87" x2="80.86" y2="307.89"/></g><text class="cls-7" transform="translate(45.17 312.96) rotate(0.16)">SIMPLE BEATS</text></g></g></svg>