<svg xmlns="http://www.w3.org/2000/svg" viewBox="0 0 350.22 134.53"><defs><style>.cls-1{fill:#71878c;}.cls-2{fill:#8b9fa4;}.cls-3{fill:#78a3a0;}.cls-4{font-size:101px;font-family:DINAlternate-Bold, DIN Alternate;font-weight:700;letter-spacing:0.01em;}.cls-4,.cls-5,.cls-6{fill:#fff;}.cls-6{stroke:#fff;stroke-miterlimit:10;}</style></defs><title>Middel 16</title><g id="Laag_2" data-name="Laag 2"><g id="Laag_1-2" data-name="Laag 1"><circle class="cls-1" cx="56.83" cy="56.83" r="56.83"/><circle class="cls-2" cx="175.11" cy="56.83" r="56.83"/><circle class="cls-3" cx="293.39" cy="56.83" r="56.83"/><text class="cls-4" transform="translate(39.76 94.94)">f</text><path class="cls-5" d="M154.77,112.83,152.53,99l6.35-32.8s-3.69-5.36-3.12-11.12a17.34,17.34,0,0,1,4.52-9.66s8.75-7.2,15.26,1a26.23,26.23,0,0,1-.84,15c-2.92,7.88-.81,13.39-.81,13.39s5.69,7.89,16.78,1.83S202,57.86,202,57.86s2.29-13.12-6.44-21-22.44-6.73-22.44-6.73-46.32,5.69-23.21,41l-1.2,9.35S117.59,71.86,137,36.19c0,0,17.26-23.16,52.87-15.08s26.86,42.74,26.86,42.74-13.19,37.8-47.63,19.84l-2.6,15.45-6.93,14.59Z"/></g><g id="Laag_2-2" data-name="Laag 2"><path class="cls-6" d="M256.32,83s12.73,2,23.41-6.46c0,0-10.33.69-14.71-11,0,0,4.67,1.27,7.3-.46,0,0-11.68-1.27-12.84-15,0,0,4.5,2.42,6.81,1.62,0,0-10.62-7.16-4.73-20.54,0,0,13.85,17.08,32.09,16,0,0-1.39-11.2,6.35-16s14.2-2.08,14.2-2.08A33.65,33.65,0,0,1,320.42,33s7.39-1.39,9.7-3.58c0,0-.58,4.16-6.23,8.19a18.81,18.81,0,0,0,8.58-2.08s-4.54,6.81-7.89,7.85C324.57,43.42,321.74,109.69,256.32,83Z"/><path class="cls-6" d="M279.3,70.81l2.22,9.92,30.25-3.34s5.78-7.24,6-9-8.65-10.87-8.65-10.87Z"/></g></g></svg>